<svg width="304" height="78" viewBox="0 0 304 78" fill="none" xmlns="http://www.w3.org/2000/svg">
<path d="M27.9513 49.4084C26.9323 50.2629 25.6998 50.6902 24.2536 50.6902C22.8074 50.6902 21.4927 50.2465 20.3095 49.3591C19.1262 48.4716 18.3374 47.1898 17.943 45.5135L13.2593 25.5956H19.8164L24.0564 44.1824V44.281H24.2043C24.27 44.281 24.3029 44.2645 24.3029 44.2317L27.902 30.082C28.8223 26.598 30.8108 24.856 33.8675 24.856C36.9242 24.856 38.8798 26.5652 39.7344 29.9834L43.3334 44.2317C43.3334 44.2974 43.3827 44.3303 43.4813 44.3303C43.58 44.3303 43.6293 44.281 43.6293 44.1824L47.7213 25.5956H54.1799L49.6934 45.5135C49.3318 47.1898 48.5594 48.4716 47.3762 49.3591C46.193 50.2465 44.8782 50.6902 43.432 50.6902C40.4082 50.6902 38.4526 48.9647 37.5651 45.5135L33.9168 30.9695C33.9168 30.9366 33.8839 30.9202 33.8182 30.9202L33.7689 30.9695L30.1205 45.5135C29.6933 47.2227 28.9702 48.5209 27.9513 49.4084ZM65.4827 20.7147C64.661 21.5364 63.6585 21.9472 62.4753 21.9472C61.292 21.9472 60.2731 21.5364 59.4186 20.7147C58.564 19.8601 58.1367 18.8248 58.1367 17.6087C58.1367 16.4254 58.564 15.4065 59.4186 14.5519C60.2731 13.6974 61.292 13.2701 62.4753 13.2701C63.6585 13.2701 64.661 13.6974 65.4827 14.5519C66.3373 15.4065 66.7646 16.4254 66.7646 17.6087C66.7646 18.8248 66.3373 19.8601 65.4827 20.7147ZM58.9749 25.5956H65.9757V50H58.9749V25.5956ZM85.5378 31.709C83.6643 31.709 82.2346 32.3664 81.2485 33.6811C80.2954 34.9958 79.8188 36.6556 79.8188 38.6606V50H72.8179V37.8224C72.8179 34.0755 73.919 30.9859 76.1211 28.5537C78.3233 26.1215 81.4622 24.9053 85.5378 24.9053C89.6463 24.9053 92.8016 26.1215 95.0038 28.5537C97.2388 30.9859 98.3563 34.0755 98.3563 37.8224V50H91.3554V38.6606C91.3554 36.6556 90.8624 34.9958 89.8764 33.6811C88.8903 32.3664 87.4441 31.709 85.5378 31.709ZM116.781 50.6902C113.363 50.6902 110.75 49.7535 108.942 47.88C107.135 46.0065 106.231 43.4922 106.231 40.3368V31.5118H101.744V25.5956H106.231V19.3835H113.232V25.5956H121.859V31.5118H113.232V40.1396C113.232 41.4872 113.61 42.539 114.366 43.2949C115.121 44.0509 116.14 44.4289 117.422 44.4289C119.131 44.4289 120.61 44.0345 121.859 43.2456V49.507C120.61 50.2958 118.918 50.6902 116.781 50.6902ZM138.725 50.6409C134.879 50.6409 131.691 49.4248 129.16 46.9926C126.662 44.5604 125.413 41.4215 125.413 37.5759C125.413 33.9933 126.596 30.953 128.963 28.4551C131.329 25.9571 134.37 24.7081 138.084 24.7081C141.831 24.7081 144.805 25.9078 147.007 28.3072C149.209 30.6737 150.31 33.5989 150.31 37.0829V39.1536H132.167C132.43 40.797 133.137 42.1117 134.287 43.0977C135.471 44.0838 136.933 44.5768 138.675 44.5768C141.502 44.5768 143.507 43.3935 144.69 41.0271L150.064 43.7387C149.012 45.9408 147.5 47.6499 145.528 48.8661C143.556 50.0493 141.288 50.6409 138.725 50.6409ZM132.463 35.2587H143.359C143.195 33.9769 142.619 32.9251 141.633 32.1034C140.68 31.2488 139.48 30.8216 138.034 30.8216C136.555 30.8216 135.323 31.2488 134.337 32.1034C133.351 32.9251 132.726 33.9769 132.463 35.2587ZM162.438 50H155.437V35.9983C155.437 32.7115 156.357 30.0492 158.198 28.0114C160.071 25.9735 162.75 24.9546 166.234 24.9546C167.976 24.9546 169.488 25.234 170.77 25.7928V32.5964C169.587 31.9062 168.288 31.5611 166.875 31.5611C165.495 31.5611 164.41 31.9884 163.621 32.8429C162.832 33.6646 162.438 34.7986 162.438 36.2448V50ZM181.046 50H174.045V14.3547H181.046V27.0746C183.018 25.6284 185.318 24.9053 187.948 24.9053C191.629 24.9053 194.439 26.0064 196.378 28.2086C198.318 30.3778 199.287 33.4181 199.287 37.3294V50L192.286 49.9507V38.0196C192.286 36.179 191.81 34.6342 190.857 33.3853C189.903 32.1363 188.572 31.5118 186.863 31.5118C185.121 31.5118 183.708 32.1363 182.623 33.3853C181.571 34.6014 181.046 36.179 181.046 38.1182V50ZM216.067 50.6409C212.583 50.6409 209.69 49.3919 207.39 46.894C205.122 44.396 203.988 41.3393 203.988 37.7238C203.988 34.1741 205.253 31.1502 207.784 28.6523C210.348 26.1215 213.487 24.856 217.201 24.856C221.013 24.856 224.169 26.0886 226.667 28.5537C229.198 30.9859 230.463 34.0426 230.463 37.7238V50H223.807V47.1405C221.967 49.4741 219.387 50.6409 216.067 50.6409ZM212.764 42.2596C213.947 43.4757 215.426 44.0838 217.201 44.0838C218.976 44.0838 220.455 43.4757 221.638 42.2596C222.854 41.0106 223.462 39.5151 223.462 37.7731C223.462 36.0311 222.854 34.5521 221.638 33.336C220.455 32.087 218.976 31.4625 217.201 31.4625C215.426 31.4625 213.947 32.087 212.764 33.336C211.58 34.5521 210.989 36.0311 210.989 37.7731C210.989 39.5151 211.58 41.0106 212.764 42.2596ZM248.205 50.6409C244.556 50.6738 241.45 49.4248 238.887 46.894C236.356 44.3632 235.09 41.3229 235.09 37.7731C235.09 34.1905 236.356 31.1502 238.887 28.6523C241.45 26.1215 244.556 24.8725 248.205 24.9053C250.67 24.9382 252.888 25.5298 254.86 26.6802C256.865 27.8306 258.394 29.5397 259.446 31.8076L253.677 34.9629C252.494 32.6622 250.67 31.5118 248.205 31.5118C246.463 31.5118 245 32.1198 243.817 33.336C242.666 34.5521 242.091 36.0311 242.091 37.7731C242.091 39.5151 242.666 40.9942 243.817 42.2103C245 43.4264 246.463 44.0345 248.205 44.0345C250.67 44.0345 252.494 42.8841 253.677 40.5833L259.446 43.7387C258.394 46.0065 256.865 47.7157 254.86 48.8661C252.888 50.0164 250.67 50.6081 248.205 50.6409ZM271.609 50H264.608V14.3547H271.609V35.0615H273.926C274.156 34.6342 274.452 34.1905 274.814 33.7304L281.568 25.5956H289.9L279.744 37.7238L289.851 50H281.519L274.764 41.7173C274.436 41.29 274.14 40.8134 273.877 40.2875H271.609V50Z" fill="#040204"/>
<path d="M17.3145 72.21C16.1545 72.21 15.1945 71.84 14.4345 71.1C13.6745 70.35 13.2945 69.415 13.2945 68.295V61.155H15.4245V65.055C16.0345 64.595 16.7045 64.365 17.4345 64.365C18.5845 64.365 19.5195 64.73 20.2395 65.46C20.9695 66.19 21.3345 67.135 21.3345 68.295C21.3345 69.375 20.9495 70.3 20.1795 71.07C19.4095 71.83 18.4545 72.21 17.3145 72.21ZM15.9645 69.645C16.3245 70.015 16.7745 70.2 17.3145 70.2C17.8545 70.2 18.3045 70.015 18.6645 69.645C19.0245 69.275 19.2045 68.825 19.2045 68.295C19.2045 67.765 19.0245 67.315 18.6645 66.945C18.3045 66.565 17.8545 66.375 17.3145 66.375C16.7745 66.375 16.3245 66.565 15.9645 66.945C15.6045 67.315 15.4245 67.765 15.4245 68.295C15.4245 68.825 15.6045 69.275 15.9645 69.645ZM26.3424 75.63C24.5424 75.63 23.2974 74.92 22.6074 73.5L24.3624 72.54C24.7524 73.3 25.4024 73.68 26.3124 73.68C26.9424 73.68 27.4324 73.47 27.7824 73.05C28.1424 72.63 28.3224 72.07 28.3224 71.37V71.16C27.9024 71.78 27.2424 72.09 26.3424 72.09C25.1824 72.09 24.3124 71.755 23.7324 71.085C23.1624 70.405 22.8774 69.49 22.8774 68.34V64.575H24.9774V68.265C24.9774 68.815 25.1174 69.255 25.3974 69.585C25.6874 69.915 26.0924 70.08 26.6124 70.08C27.0924 70.08 27.4924 69.905 27.8124 69.555C28.1324 69.195 28.2924 68.75 28.2924 68.22V64.575H30.4524V71.34C30.4524 72.63 30.0724 73.665 29.3124 74.445C28.5624 75.235 27.5724 75.63 26.3424 75.63ZM37.1381 61.905H39.3281V72H37.1381V61.905ZM49.231 72H43.801C42.511 72 41.866 71.375 41.866 70.125V63.795C41.866 62.535 42.511 61.905 43.801 61.905H49.141V63.87H44.056V65.97H48.826V67.935H44.056V70.035H49.231V72ZM60.5864 66.96C60.5864 68.49 60.0714 69.715 59.0414 70.635C58.0214 71.545 56.7064 72 55.0964 72H51.3764V61.905H55.1414C56.7814 61.905 58.0964 62.37 59.0864 63.3C60.0864 64.22 60.5864 65.44 60.5864 66.96ZM58.3364 66.96C58.3364 66.05 58.0414 65.32 57.4514 64.77C56.8614 64.21 56.0914 63.93 55.1414 63.93H53.5664V70.035H55.0964C56.0564 70.035 56.8364 69.755 57.4364 69.195C58.0364 68.635 58.3364 67.89 58.3364 66.96ZM67.0217 72.21C65.5517 72.21 64.3117 71.705 63.3017 70.695C62.2917 69.675 61.7867 68.43 61.7867 66.96C61.7867 65.49 62.2917 64.25 63.3017 63.24C64.3117 62.22 65.5517 61.71 67.0217 61.71C67.9117 61.71 68.7367 61.935 69.4967 62.385C70.2667 62.825 70.8367 63.435 71.2067 64.215L69.4217 65.22C68.8817 64.27 68.0517 63.795 66.9317 63.795C66.0917 63.795 65.3967 64.095 64.8467 64.695C64.3067 65.285 64.0367 66.04 64.0367 66.96C64.0367 67.88 64.3067 68.64 64.8467 69.24C65.3867 69.83 66.0817 70.125 66.9317 70.125C68.0817 70.125 68.9117 69.65 69.4217 68.7L71.2067 69.705C70.8367 70.485 70.2667 71.1 69.4967 71.55C68.7367 71.99 67.9117 72.21 67.0217 72.21ZM76.9965 61.905H79.1865V72H76.9965V61.905ZM86.2844 72.21C84.8144 72.21 83.5744 71.705 82.5644 70.695C81.5544 69.675 81.0494 68.43 81.0494 66.96C81.0494 65.49 81.5544 64.25 82.5644 63.24C83.5744 62.22 84.8144 61.71 86.2844 61.71C87.1744 61.71 87.9994 61.935 88.7594 62.385C89.5294 62.825 90.0994 63.435 90.4694 64.215L88.6844 65.22C88.1444 64.27 87.3144 63.795 86.1944 63.795C85.3544 63.795 84.6594 64.095 84.1094 64.695C83.5694 65.285 83.2994 66.04 83.2994 66.96C83.2994 67.88 83.5694 68.64 84.1094 69.24C84.6494 69.83 85.3444 70.125 86.1944 70.125C87.3444 70.125 88.1744 69.65 88.6844 68.7L90.4694 69.705C90.0994 70.485 89.5294 71.1 88.7594 71.55C87.9994 71.99 87.1744 72.21 86.2844 72.21ZM99.2408 72H93.8108C92.5208 72 91.8758 71.375 91.8758 70.125V63.795C91.8758 62.535 92.5208 61.905 93.8108 61.905H99.1508V63.87H94.0658V65.97H98.8358V67.935H94.0658V70.035H99.2408V72ZM108.376 61.905V63.93H105.406V72H103.216V63.93H100.246V61.905H108.376Z" fill="#040204"/>
</svg>
